<?xml version="1.0" encoding="UTF-8" standalone="no"?>
<svg
   contentScriptType="text/ecmascript"
   width="200mm"
   zoomAndPan="magnify"
   contentStyleType="text/css"
   viewBox="0 0 793.7008 1122.5197"
   height="200mm"
   preserveAspectRatio="xMidYMid meet"
   version="1.0"
   id="svg26"
   sodipodiDocname="logo-api-black.svg"
   inkscapeVersion="1.1 (c68e22c387, 2021-05-23)"
   xmlnsInkscape="http://www.inkscape.org/namespaces/inkscape"
   xmlnsSodipodi="http://sodipodi.sourceforge.net/DTD/sodipodi-0.dtd"
   xmlns="http://www.w3.org/2000/svg"
   xmlnsSvg="http://www.w3.org/2000/svg">
  <defs
     id="defs30" />
  <sodipodiNamedview
     id="namedview28"
     pagecolor="#505050"
     bordercolor="#eeeeee"
     borderopacity="1"
     inkscapePageshadow="0"
     inkscapePageopacity="0"
     inkscapePagecheckerboard="0"
     showgrid="false"
     inkscapeSnap-bbox="true"
     inkscapeBbox-paths="true"
     inkscapeSnap-bbox-edge-midpoints="true"
     inkscapeBbox-nodes="true"
     inkscapeSnap-bbox-midpoints="true"
     inkscapeObject-paths="true"
     inkscapeSnap-intersection-paths="true"
     inkscapeSnap-midpoints="true"
     inkscapeSnap-smooth-nodes="true"
     inkscapeSnap-center="true"
     inkscapeSnap-text-baseline="true"
     inkscapeSnap-page="true"
     inkscapeSnap-object-midpoints="true"
     showguides="true"
     inkscapeGuide-bbox="true"
     inkscapeZoom="0.37366666"
     inkscapeCx="329.17039"
     inkscapeCy="540.58877"
     inkscapeWindow-width="1920"
     inkscapeWindow-height="1027"
     inkscapeWindow-x="-8"
     inkscapeWindow-y="-8"
     inkscapeWindow-maximized="1"
     inkscapeCurrent-layer="svg26"
     units="mm"
     inkscapeDocument-units="mm">
    <sodipodiGuide
       position="659.0519,53.039062"
       orientation="0,-1"
       id="guide6707" />
  </sodipodiNamedview>
  <g
     id="g5874"
     transform="matrix(1.1638175,0,0,1.1638175,247.43835,497.70147)"
     inkscapeExport-filename="C:\Users\xbaku\Desktop\1(png).png"
     inkscapeExport-xdpi="170.66667"
     inkscapeExport-ydpi="170.66667">
    <g
       id="g855"
       transform="translate(1020.8361,-220.10342)">
      <path
         fill="currentColor"
         d="M -735.88126,79.447587 V 51.616147 H -1067.6871 V 388.5907 h 331.80584 z m -7.86009,0 V 380.73061 H -1059.8117 V 59.460937 h 316.07035 z m 0,0"
         fill-opacity="1"
         fill-rule="nonzero"
         id="path2"
         style="fill:#000000;fill-opacity:1;stroke:#000000;stroke-width:5.015;stroke-miterlimit:4;stroke-dasharray:none;stroke-opacity:1"
         inkscapeExport-filename="C:\Users\xbaku\Desktop\rect9436.png"
         inkscapeExport-xdpi="170.66667"
         inkscapeExport-ydpi="170.66667" />
      <path
         fill="currentColor"
         d="m -949.5105,240.21241 h -66.8872 l -14.4051,32.05203 h -13.2429 l 54.883,-120.04221 h 12.5395 l 54.8677,120.04221 h -13.3958 z m -4.6641,-10.29152 -28.7795,-64.51696 -28.8255,64.51696 z m 0,0"
         fill-opacity="1"
         fill-rule="nonzero"
         id="path4"
         inkscapeExport-filename="C:\Users\xbaku\Desktop\rect9436.png"
         inkscapeExport-xdpi="170.66667"
         inkscapeExport-ydpi="170.66667"
         style="stroke-width:3.91475" />
      <path
         fill="currentColor"
         d="m -857.9879,181.36878 c 8.4718,0 16.1331,1.9115 22.99918,5.7345 6.85081,3.83829 12.2183,9.25167 16.07189,16.24011 3.88417,6.97315 5.84155,14.89441 5.84155,23.79435 0,9.03758 -1.95738,17.06588 -5.84155,24.05432 -3.85359,6.97315 -9.20578,12.37123 -16.02601,16.19423 -6.78966,3.82301 -14.46626,5.7345 -23.04506,5.7345 -7.3249,0 -13.931,-1.5139 -19.8184,-4.55701 -5.8722,-3.02782 -10.6891,-7.4625 -14.4663,-13.28875 v 50.26481 H -904.445 V 182.07221 h 11.6372 v 17.84577 c 3.6701,-5.96388 8.5177,-10.53619 14.5121,-13.71692 6.0098,-3.22662 12.7689,-4.83228 20.3078,-4.83228 z m -0.8563,80.92528 c 6.285,0 12.0042,-1.45274 17.1576,-4.34293 5.13809,-2.92077 9.15989,-7.0802 12.05008,-12.4324 2.92077,-5.38278 4.40409,-11.53017 4.40409,-18.38099 0,-6.8661 -1.48332,-12.93703 -4.40409,-18.22806 -2.89019,-5.30633 -6.91199,-9.45046 -12.05008,-12.4324 -5.1534,-2.99723 -10.8726,-4.49585 -17.1576,-4.49585 -6.3921,0 -12.1419,1.49862 -17.2494,4.49585 -5.077,2.98194 -9.0835,7.12607 -12.0042,12.4324 -2.8902,5.29103 -4.343,11.36196 -4.343,18.22806 0,6.85082 1.4528,12.99821 4.343,18.38099 2.9207,5.3522 6.9272,9.51163 12.0042,12.4324 5.1075,2.89019 10.8573,4.34293 17.2494,4.34293 z m 0,0"
         fill-opacity="1"
         fill-rule="nonzero"
         id="path6"
         inkscapeExport-filename="C:\Users\xbaku\Desktop\rect9436.png"
         inkscapeExport-xdpi="170.66667"
         inkscapeExport-ydpi="170.66667"
         style="stroke-width:3.91475" />
      <path
         fill="currentColor"
         d="m -788.1952,182.07221 h 12.17244 v 90.19223 h -12.17244 z m 6.16268,-19.72668 c -2.50789,0 -4.60289,-0.85635 -6.3156,-2.56905 -1.7127,-1.71271 -2.56905,-3.76184 -2.56905,-6.16268 0,-2.27851 0.85635,-4.29705 2.56905,-6.00976 1.71271,-1.7127 3.80771,-2.56905 6.3156,-2.56905 2.4926,0 4.61818,0.82576 6.33089,2.46201 1.7127,1.65153 2.56905,3.6242 2.56905,5.90271 0,2.53847 -0.85635,4.66406 -2.56905,6.37677 -1.71271,1.7127 -3.83829,2.56905 -6.33089,2.56905 z m 0,0"
         fill-opacity="1"
         fill-rule="nonzero"
         id="path8"
         inkscapeExport-filename="C:\Users\xbaku\Desktop\rect9436.png"
         inkscapeExport-xdpi="170.66667"
         inkscapeExport-ydpi="170.66667"
         style="stroke-width:3.91475" />
    </g>
    <text
       xmlSpace="preserve"
       style="font-style:normal;font-variant:normal;font-weight:500;font-stretch:normal;font-size:86.9153px;line-height:1.25;font-family:'Acherus Grotesque';-inkscape-font-specification:'Acherus Grotesque Medium';letter-spacing:19.9311px;word-spacing:0px;fill:#000000;fill-opacity:1;stroke-width:2.71611"
       x="-152.15314"
       y="273.70975"
       id="text1828"
       inkscapeExport-filename="C:\Users\xbaku\Desktop\rect9436.png"
       inkscapeExport-xdpi="170.66667"
       inkscapeExport-ydpi="170.66667"
       transform="scale(1.0573675,0.94574497)"><tspan
         sodipodiRole="line"
         id="tspan1826"
         x="-152.15314"
         y="273.70975"
         style="font-style:normal;font-variant:normal;font-weight:normal;font-stretch:normal;font-size:86.9153px;font-family:Arial;-inkscape-font-specification:'Arial, Normal';font-variant-ligatures:normal;font-variant-caps:normal;font-variant-numeric:normal;font-variant-east-asian:normal;fill:#000000;fill-opacity:1;stroke-width:2.71611">CANDLES</tspan></text>
  </g>
</svg>
